<?xml version="1.0" encoding="UTF-8" standalone="no"?>
<svg
   xmlns:dc="http://purl.org/dc/elements/1.1/"
   xmlns:cc="http://creativecommons.org/ns#"
   xmlns:rdf="http://www.w3.org/1999/02/22-rdf-syntax-ns#"
   xmlns:svg="http://www.w3.org/2000/svg"
   xmlns="http://www.w3.org/2000/svg"
   xmlns:sodipodi="http://sodipodi.sourceforge.net/DTD/sodipodi-0.dtd"
   xmlns:inkscape="http://www.inkscape.org/namespaces/inkscape"
   sodipodi:docname="o-check.svg"
   inkscape:version="1.0 (4035a4fb49, 2020-05-01)"
   id="svg8"
   version="1.1"
   viewBox="0 0 210 297"
   height="297mm"
   width="210mm">
  <defs
     id="defs2" />
  <sodipodi:namedview
     inkscape:window-maximized="1"
     inkscape:window-y="-8"
     inkscape:window-x="-8"
     inkscape:window-height="705"
     inkscape:window-width="1366"
     inkscape:pagecheckerboard="true"
     inkscape:snap-bbox-midpoints="true"
     inkscape:snap-bbox="true"
     showgrid="false"
     inkscape:document-rotation="0"
     inkscape:current-layer="layer1"
     inkscape:document-units="mm"
     inkscape:cy="109.42974"
     inkscape:cx="226.54855"
     inkscape:zoom="1.4"
     inkscape:pageshadow="2"
     inkscape:pageopacity="0.0"
     borderopacity="1.0"
     bordercolor="#666666"
     pagecolor="#ffffff"
     id="base" />
  <metadata
     id="metadata5">
    <rdf:RDF>
      <cc:Work
         rdf:about="">
        <dc:format>image/svg+xml</dc:format>
        <dc:type
           rdf:resource="http://purl.org/dc/dcmitype/StillImage" />
        <dc:title></dc:title>
      </cc:Work>
    </rdf:RDF>
  </metadata>
  <g
     id="layer1"
     inkscape:groupmode="layer"
     inkscape:label="Capa 1">
    <path
       transform="scale(0.26458333)"
       d="M 153.51953 79.285156 A 50.000001 50.000001 0 0 0 103.57227 129.28516 A 50.000001 50.000001 0 0 0 153.57227 179.28516 A 50.000001 50.000001 0 0 0 203.57227 129.28516 A 50.000001 50.000001 0 0 0 153.57227 79.285156 A 50.000001 50.000001 0 0 0 153.51953 79.285156 z M 153.42578 99.285156 A 30 30 0 0 1 153.57227 99.285156 A 30 30 0 0 1 183.57227 129.28516 A 30 30 0 0 1 153.57227 159.28516 A 30 30 0 0 1 123.57227 129.28516 A 30 30 0 0 1 153.42578 99.285156 z "
       style="fill:#fafaff;stroke:#000000;stroke-width:0;stroke-miterlimit:4;stroke-dasharray:none;fill-opacity:1"
       id="path10" />
  </g>
</svg>
